<svg width="443" height="443" viewBox="0 0 443 443" fill="none" xmlns="http://www.w3.org/2000/svg">
<path d="M221.26 414.56C114.94 414.56 28.44 328.06 28.44 221.74C28.44 115.42 114.94 28.92 221.26 28.92C327.58 28.92 414.08 115.42 414.08 221.74C414.08 328.06 327.58 414.56 221.26 414.56ZM221.26 38.92C120.45 38.92 38.44 120.93 38.44 221.74C38.44 322.55 120.45 404.56 221.26 404.56C322.07 404.56 404.08 322.55 404.08 221.74C404.08 120.93 322.07 38.92 221.26 38.92Z" fill="black"/>
<path d="M221.26 349.56C150.78 349.56 93.44 292.22 93.44 221.74C93.44 151.26 150.78 93.92 221.26 93.92C291.74 93.92 349.08 151.26 349.08 221.74C349.08 292.22 291.74 349.56 221.26 349.56ZM221.26 103.92C156.3 103.92 103.44 156.77 103.44 221.74C103.44 286.71 156.29 339.56 221.26 339.56C286.23 339.56 339.08 286.71 339.08 221.74C339.08 156.78 286.23 103.92 221.26 103.92Z" fill="black"/>
<path d="M241.5 298.23C239.41 298.23 237.54 296.93 236.81 294.97L212.77 230.24L148.04 206.19C146.04 205.45 144.74 203.52 144.78 201.4C144.83 199.27 146.21 197.41 148.24 196.75L283.81 152.9C285.6 152.32 287.56 152.8 288.88 154.12C290.21 155.45 290.68 157.41 290.1 159.19L246.25 294.77C245.6 296.79 243.73 298.18 241.6 298.23C241.57 298.23 241.53 298.23 241.5 298.23ZM165.01 201.83L218.39 221.66C219.75 222.17 220.83 223.24 221.34 224.61L241.17 277.99L277.58 165.42L165.01 201.83Z" fill="black"/>
<path d="M214.09 310.03C212.06 310.03 210.15 308.79 209.4 306.77L189.58 253.42L136.23 233.6C133.64 232.64 132.32 229.76 133.28 227.17C134.24 224.58 137.12 223.26 139.71 224.22L195.21 244.84C196.57 245.35 197.65 246.42 198.16 247.79L218.78 303.29C219.74 305.88 218.42 308.76 215.83 309.72C215.25 309.93 214.67 310.03 214.09 310.03Z" fill="black"/>
<path d="M221.26 67.1C218.5 67.1 216.26 64.86 216.26 62.1V5.74C216.26 2.98 218.5 0.739998 221.26 0.739998C224.02 0.739998 226.26 2.98 226.26 5.74V62.1C226.26 64.86 224.02 67.1 221.26 67.1Z" fill="black"/>
<path d="M437.26 226.74H380.9C378.14 226.74 375.9 224.5 375.9 221.74C375.9 218.98 378.14 216.74 380.9 216.74H437.26C440.02 216.74 442.26 218.98 442.26 221.74C442.26 224.5 440.02 226.74 437.26 226.74Z" fill="black"/>
<path d="M221.26 442.74C218.5 442.74 216.26 440.5 216.26 437.74V381.38C216.26 378.62 218.5 376.38 221.26 376.38C224.02 376.38 226.26 378.62 226.26 381.38V437.74C226.26 440.5 224.02 442.74 221.26 442.74Z" fill="black"/>
<path d="M61.62 226.74H5.25999C2.49999 226.74 0.259995 224.5 0.259995 221.74C0.259995 218.98 2.49999 216.74 5.25999 216.74H61.62C64.38 216.74 66.62 218.98 66.62 221.74C66.62 224.5 64.38 226.74 61.62 226.74Z" fill="black"/>
</svg>
