<svg width="187" height="200" viewBox="0 0 187 200" fill="none" xmlns="http://www.w3.org/2000/svg">
<path d="M145.68 113H40.96C32.7114 113 26 107.258 26 100.2C26 93.1424 32.7114 87.4 40.96 87.4H145.68C153.929 87.4 160.64 93.1424 160.64 100.2C160.64 107.258 153.929 113 145.68 113Z" fill="black"/>
<path d="M145.68 74.6H40.96C32.7114 74.6 26 68.8576 26 61.8C26 54.7424 32.7114 49 40.96 49H145.68C153.929 49 160.64 54.7424 160.64 61.8C160.64 68.8576 153.929 74.6 145.68 74.6Z" fill="black"/>
<path d="M145.68 151.4H40.96C32.7114 151.4 26 145.658 26 138.6C26 131.542 32.7114 125.8 40.96 125.8H145.68C153.929 125.8 160.64 131.542 160.64 138.6C160.64 145.658 153.929 151.4 145.68 151.4Z" fill="black"/>
</svg>
