<svg width="187" height="200" viewBox="0 0 187 200" fill="none" xmlns="http://www.w3.org/2000/svg">
<g clip-path="url(#clip0_7_2)">
<path d="M135.778 152H50.2222C43.4832 152 38 147.514 38 142C38 136.486 43.4832 132 50.2222 132H135.778C142.517 132 148 136.486 148 142C148 147.514 142.517 152 135.778 152Z" fill="black"/>
<path d="M135.778 152H50.2222C43.4832 152 38 147.514 38 142C38 136.486 43.4832 132 50.2222 132H135.778C142.517 132 148 136.486 148 142C148 147.514 142.517 152 135.778 152Z" stroke="black"/>
<path d="M135.778 110H50.2222C43.4832 110 38 105.514 38 100C38 94.4863 43.4832 90 50.2222 90H135.778C142.517 90 148 94.4863 148 100C148 105.514 142.517 110 135.778 110Z" fill="black"/>
<path d="M135.778 110H50.2222C43.4832 110 38 105.514 38 100C38 94.4863 43.4832 90 50.2222 90H135.778C142.517 90 148 94.4863 148 100C148 105.514 142.517 110 135.778 110Z" stroke="black"/>
<path d="M135.778 68H50.2222C43.4832 68 38 63.5138 38 58C38 52.4863 43.4832 48 50.2222 48H135.778C142.517 48 148 52.4863 148 58C148 63.5138 142.517 68 135.778 68Z" fill="black"/>
<path d="M135.778 68H50.2222C43.4832 68 38 63.5138 38 58C38 52.4863 43.4832 48 50.2222 48H135.778C142.517 48 148 52.4863 148 58C148 63.5138 142.517 68 135.778 68Z" stroke="black"/>
<rect x="5" y="8" width="177" height="184" rx="30" stroke="black" stroke-width="11"/>
</g>
<defs>
<clipPath id="clip0_7_2">
<rect width="187" height="200" fill="white"/>
</clipPath>
</defs>
</svg>
