<svg width="50" height="63" viewBox="0 0 50 63" fill="none" xmlns="http://www.w3.org/2000/svg">
<path d="M31.715 11.174C31.715 7.54599 28.764 4.59399 25.135 4.59399C21.506 4.59399 18.555 7.54599 18.555 11.174C18.555 14.802 21.507 17.754 25.135 17.754C28.763 17.754 31.715 14.802 31.715 11.174ZM19.555 11.174C19.555 8.09699 22.058 5.59399 25.135 5.59399C28.212 5.59399 30.715 8.09699 30.715 11.174C30.715 14.251 28.212 16.754 25.135 16.754C22.058 16.754 19.555 14.25 19.555 11.174Z" fill="black"/>
<path d="M29.765 30.971C32.843 23.968 36.489 14.92 36.489 11.354C36.488 5.093 31.396 0 25.135 0C18.874 0 13.782 5.093 13.782 11.354C13.782 14.916 17.418 23.943 20.493 30.942C11.476 31.953 5.223 35.773 5.223 40.344C5.223 45.759 13.91 50 25 50C36.089 50 44.775 45.759 44.775 40.344C44.776 35.854 38.618 32.024 29.765 30.971ZM25.135 1C30.843 1 35.488 5.645 35.488 11.354C35.488 15.617 29.738 28.717 26.629 35.491L26.628 35.493C26.001 36.858 25.479 37.972 25.135 38.699C23.089 34.37 14.782 16.478 14.782 11.354C14.782 5.645 19.427 1 25.135 1ZM27.375 36.272C30.972 36.71 33.643 38.126 33.643 39.637C33.643 41.331 30.17 43.145 25 43.145C19.83 43.145 16.357 41.332 16.357 39.637C16.357 38.076 19.142 36.643 22.882 36.243C23.876 38.397 24.576 39.854 24.684 40.078C24.767 40.251 24.942 40.361 25.134 40.361C25.326 40.361 25.501 40.251 25.585 40.078C25.693 39.856 26.388 38.411 27.375 36.272ZM22.443 35.287C18.238 35.807 15.357 37.551 15.357 39.638C15.357 42.165 19.592 44.146 25 44.146C30.408 44.146 34.643 42.166 34.643 39.638C34.643 37.575 31.926 35.88 27.813 35.32C28.006 34.898 28.208 34.456 28.416 33.997C34.531 34.7 38.958 37.235 38.958 40.05C38.958 43.438 32.567 46.299 25.002 46.299C17.436 46.299 11.044 43.438 11.044 40.05C11.044 37.213 15.669 34.626 21.844 33.97C22.05 34.426 22.251 34.867 22.443 35.287ZM25.001 49C14.647 49 6.224 45.117 6.224 40.344C6.224 36.316 12.39 32.784 20.917 31.899C21.085 32.278 21.25 32.65 21.414 33.012C14.691 33.798 10.044 36.645 10.044 40.049C10.044 44.113 16.614 47.298 25.002 47.298C33.389 47.298 39.958 44.113 39.958 40.049C39.958 36.718 35.408 33.872 28.845 33.044C29.009 32.679 29.175 32.305 29.345 31.923C37.708 32.851 43.778 36.391 43.778 40.344C43.776 45.117 35.354 49 25.001 49Z" fill="black"/>
</svg>
